<svg xmlns="http://www.w3.org/2000/svg" width="195" height="195" fill="none" viewBox="0 0 195 195"><rect width="5" height="5" x="4" y="4" fill="#DDF3F8" fill-opacity=".6" rx="1"/><rect width="5" height="5" x="17" y="4" fill="#DDF3F8" rx="1"/><rect width="5" height="5" x="30" y="4" fill="#DDF3F8" fill-opacity=".8" rx="1"/><rect width="5" height="5" x="43" y="4" fill="#DDF3F8" fill-opacity=".4" rx="1"/><rect width="5" height="5" x="56" y="4" fill="#DDF3F8" fill-opacity=".4" rx="1"/><rect width="5" height="5" x="69" y="4" fill="#DDF3F8" fill-opacity=".6" rx="1"/><rect width="5" height="5" x="82" y="4" fill="#DDF3F8" fill-opacity=".8" rx="1"/><rect width="5" height="5" x="95" y="4" fill="#DDF3F8" fill-opacity=".6" rx="1"/><rect width="5" height="5" x="108" y="4" fill="#DDF3F8" fill-opacity=".4" rx="1"/><rect width="5" height="5" x="121" y="4" fill="#DDF3F8" fill-opacity=".4" rx="1"/><rect width="5" height="5" x="134" y="4" fill="#DDF3F8" fill-opacity=".6" rx="1"/><rect width="5" height="5" x="147" y="4" fill="#DDF3F8" fill-opacity=".2" rx="1"/><rect width="5" height="5" x="160" y="4" fill="#DDF3F8" fill-opacity=".6" rx="1"/><rect width="5" height="5" x="173" y="4" fill="#DDF3F8" fill-opacity=".8" rx="1"/><rect width="5" height="5" x="186" y="4" fill="#DDF3F8" fill-opacity=".2" rx="1"/><rect width="5" height="5" x="4" y="17" fill="#DDF3F8" fill-opacity=".8" rx="1"/><rect width="5" height="5" x="17" y="17" fill="#DDF3F8" fill-opacity=".8" rx="1"/><rect width="5" height="5" x="30" y="17" fill="#DDF3F8" rx="1"/><rect width="5" height="5" x="43" y="17" fill="#DDF3F8" fill-opacity=".6" rx="1"/><rect width="5" height="5" x="56" y="17" fill="#DDF3F8" fill-opacity=".6" rx="1"/><rect width="5" height="5" x="69" y="17" fill="#DDF3F8" fill-opacity=".6" rx="1"/><rect width="5" height="5" x="82" y="17" fill="#DDF3F8" fill-opacity=".2" rx="1"/><rect width="5" height="5" x="95" y="17" fill="#DDF3F8" fill-opacity=".2" rx="1"/><rect width="5" height="5" x="108" y="17" fill="#DDF3F8" fill-opacity=".6" rx="1"/><rect width="5" height="5" x="121" y="17" fill="#DDF3F8" fill-opacity=".2" rx="1"/><rect width="5" height="5" x="134" y="17" fill="#DDF3F8" fill-opacity=".4" rx="1"/><rect width="5" height="5" x="147" y="17" fill="#DDF3F8" fill-opacity=".6" rx="1"/><rect width="5" height="5" x="160" y="17" fill="#DDF3F8" fill-opacity=".4" rx="1"/><rect width="5" height="5" x="173" y="17" fill="#DDF3F8" fill-opacity=".4" rx="1"/><rect width="5" height="5" x="186" y="17" fill="#DDF3F8" fill-opacity=".4" rx="1"/><rect width="5" height="5" x="4" y="30" fill="#DDF3F8" fill-opacity=".2" rx="1"/><rect width="5" height="5" x="17" y="30" fill="#DDF3F8" rx="1"/><rect width="5" height="5" x="30" y="30" fill="#DDF3F8" fill-opacity=".6" rx="1"/><rect width="5" height="5" x="43" y="30" fill="#DDF3F8" fill-opacity=".2" rx="1"/><rect width="5" height="5" x="56" y="30" fill="#DDF3F8" rx="1"/><rect width="5" height="5" x="69" y="30" fill="#DDF3F8" fill-opacity=".2" rx="1"/><rect width="5" height="5" x="82" y="30" fill="#DDF3F8" fill-opacity=".4" rx="1"/><rect width="5" height="5" x="95" y="30" fill="#DDF3F8" rx="1"/><rect width="5" height="5" x="108" y="30" fill="#DDF3F8" fill-opacity=".6" rx="1"/><rect width="5" height="5" x="121" y="30" fill="#DDF3F8" fill-opacity=".8" rx="1"/><rect width="5" height="5" x="134" y="30" fill="#DDF3F8" rx="1"/><rect width="5" height="5" x="147" y="30" fill="#DDF3F8" fill-opacity=".6" rx="1"/><rect width="5" height="5" x="160" y="30" fill="#DDF3F8" rx="1"/><rect width="5" height="5" x="173" y="30" fill="#DDF3F8" rx="1"/><rect width="5" height="5" x="186" y="30" fill="#DDF3F8" fill-opacity=".8" rx="1"/><rect width="5" height="5" x="4" y="43" fill="#DDF3F8" fill-opacity=".2" rx="1"/><rect width="5" height="5" x="17" y="43" fill="#DDF3F8" rx="1"/><rect width="5" height="5" x="30" y="43" fill="#DDF3F8" fill-opacity=".6" rx="1"/><rect width="5" height="5" x="43" y="43" fill="#DDF3F8" fill-opacity=".4" rx="1"/><rect width="5" height="5" x="56" y="43" fill="#DDF3F8" fill-opacity=".2" rx="1"/><rect width="5" height="5" x="69" y="43" fill="#DDF3F8" fill-opacity=".4" rx="1"/><rect width="5" height="5" x="82" y="43" fill="#DDF3F8" fill-opacity=".8" rx="1"/><rect width="5" height="5" x="95" y="43" fill="#DDF3F8" fill-opacity=".4" rx="1"/><rect width="5" height="5" x="108" y="43" fill="#DDF3F8" fill-opacity=".6" rx="1"/><rect width="5" height="5" x="121" y="43" fill="#DDF3F8" fill-opacity=".6" rx="1"/><rect width="5" height="5" x="134" y="43" fill="#DDF3F8" fill-opacity=".6" rx="1"/><rect width="5" height="5" x="147" y="43" fill="#DDF3F8" fill-opacity=".2" rx="1"/><rect width="5" height="5" x="160" y="43" fill="#DDF3F8" rx="1"/><rect width="5" height="5" x="173" y="43" fill="#DDF3F8" rx="1"/><rect width="5" height="5" x="186" y="43" fill="#DDF3F8" fill-opacity=".4" rx="1"/><rect width="5" height="5" x="4" y="56" fill="#DDF3F8" fill-opacity=".2" rx="1"/><rect width="5" height="5" x="17" y="56" fill="#DDF3F8" fill-opacity=".8" rx="1"/><rect width="5" height="5" x="30" y="56" fill="#DDF3F8" fill-opacity=".4" rx="1"/><rect width="5" height="5" x="43" y="56" fill="#DDF3F8" fill-opacity=".2" rx="1"/><rect width="5" height="5" x="56" y="56" fill="#DDF3F8" fill-opacity=".4" rx="1"/><rect width="5" height="5" x="69" y="56" fill="#DDF3F8" fill-opacity=".2" rx="1"/><rect width="5" height="5" x="82" y="56" fill="#DDF3F8" fill-opacity=".2" rx="1"/><rect width="5" height="5" x="95" y="56" fill="#DDF3F8" fill-opacity=".6" rx="1"/><rect width="5" height="5" x="108" y="56" fill="#DDF3F8" fill-opacity=".6" rx="1"/><rect width="5" height="5" x="121" y="56" fill="#DDF3F8" fill-opacity=".2" rx="1"/><rect width="5" height="5" x="134" y="56" fill="#DDF3F8" fill-opacity=".6" rx="1"/><rect width="5" height="5" x="147" y="56" fill="#DDF3F8" rx="1"/><rect width="5" height="5" x="160" y="56" fill="#DDF3F8" fill-opacity=".6" rx="1"/><rect width="5" height="5" x="173" y="56" fill="#DDF3F8" rx="1"/><rect width="5" height="5" x="186" y="56" fill="#DDF3F8" fill-opacity=".2" rx="1"/><rect width="5" height="5" x="4" y="69" fill="#DDF3F8" fill-opacity=".8" rx="1"/><rect width="5" height="5" x="17" y="69" fill="#DDF3F8" rx="1"/><rect width="5" height="5" x="30" y="69" fill="#DDF3F8" fill-opacity=".6" rx="1"/><rect width="5" height="5" x="43" y="69" fill="#DDF3F8" fill-opacity=".6" rx="1"/><rect width="5" height="5" x="56" y="69" fill="#DDF3F8" fill-opacity=".6" rx="1"/><rect width="5" height="5" x="69" y="69" fill="#DDF3F8" fill-opacity=".2" rx="1"/><rect width="5" height="5" x="82" y="69" fill="#DDF3F8" rx="1"/><rect width="5" height="5" x="95" y="69" fill="#DDF3F8" rx="1"/><rect width="5" height="5" x="108" y="69" fill="#DDF3F8" rx="1"/><rect width="5" height="5" x="121" y="69" fill="#DDF3F8" fill-opacity=".4" rx="1"/><rect width="5" height="5" x="134" y="69" fill="#DDF3F8" fill-opacity=".8" rx="1"/><rect width="5" height="5" x="147" y="69" fill="#DDF3F8" fill-opacity=".2" rx="1"/><rect width="5" height="5" x="160" y="69" fill="#DDF3F8" fill-opacity=".4" rx="1"/><rect width="5" height="5" x="173" y="69" fill="#DDF3F8" fill-opacity=".8" rx="1"/><rect width="5" height="5" x="186" y="69" fill="#DDF3F8" fill-opacity=".4" rx="1"/><rect width="5" height="5" x="4" y="82" fill="#DDF3F8" fill-opacity=".6" rx="1"/><rect width="5" height="5" x="17" y="82" fill="#DDF3F8" rx="1"/><rect width="5" height="5" x="30" y="82" fill="#DDF3F8" fill-opacity=".6" rx="1"/><rect width="5" height="5" x="43" y="82" fill="#DDF3F8" fill-opacity=".2" rx="1"/><rect width="5" height="5" x="56" y="82" fill="#DDF3F8" rx="1"/><rect width="5" height="5" x="69" y="82" fill="#DDF3F8" rx="1"/><rect width="5" height="5" x="82" y="82" fill="#DDF3F8" fill-opacity=".4" rx="1"/><rect width="5" height="5" x="95" y="82" fill="#DDF3F8" fill-opacity=".8" rx="1"/><rect width="5" height="5" x="108" y="82" fill="#DDF3F8" fill-opacity=".2" rx="1"/><rect width="5" height="5" x="121" y="82" fill="#DDF3F8" fill-opacity=".6" rx="1"/><rect width="5" height="5" x="134" y="82" fill="#DDF3F8" fill-opacity=".2" rx="1"/><rect width="5" height="5" x="147" y="82" fill="#DDF3F8" fill-opacity=".4" rx="1"/><rect width="5" height="5" x="160" y="82" fill="#DDF3F8" fill-opacity=".6" rx="1"/><rect width="5" height="5" x="173" y="82" fill="#DDF3F8" fill-opacity=".8" rx="1"/><rect width="5" height="5" x="186" y="82" fill="#DDF3F8" fill-opacity=".4" rx="1"/><rect width="5" height="5" x="4" y="95" fill="#DDF3F8" fill-opacity=".4" rx="1"/><rect width="5" height="5" x="17" y="95" fill="#DDF3F8" fill-opacity=".4" rx="1"/><rect width="5" height="5" x="30" y="95" fill="#DDF3F8" fill-opacity=".6" rx="1"/><rect width="5" height="5" x="43" y="95" fill="#DDF3F8" fill-opacity=".8" rx="1"/><rect width="5" height="5" x="56" y="95" fill="#DDF3F8" fill-opacity=".6" rx="1"/><rect width="5" height="5" x="69" y="95" fill="#DDF3F8" fill-opacity=".2" rx="1"/><rect width="5" height="5" x="82" y="95" fill="#DDF3F8" fill-opacity=".4" rx="1"/><rect width="5" height="5" x="95" y="95" fill="#DDF3F8" fill-opacity=".4" rx="1"/><rect width="5" height="5" x="108" y="95" fill="#DDF3F8" fill-opacity=".4" rx="1"/><rect width="5" height="5" x="121" y="95" fill="#DDF3F8" rx="1"/><rect width="5" height="5" x="134" y="95" fill="#DDF3F8" fill-opacity=".2" rx="1"/><rect width="5" height="5" x="147" y="95" fill="#DDF3F8" rx="1"/><rect width="5" height="5" x="160" y="95" fill="#DDF3F8" fill-opacity=".4" rx="1"/><rect width="5" height="5" x="173" y="95" fill="#DDF3F8" fill-opacity=".8" rx="1"/><rect width="5" height="5" x="186" y="95" fill="#DDF3F8" fill-opacity=".2" rx="1"/><rect width="5" height="5" x="4" y="108" fill="#DDF3F8" fill-opacity=".2" rx="1"/><rect width="5" height="5" x="17" y="108" fill="#DDF3F8" fill-opacity=".2" rx="1"/><rect width="5" height="5" x="30" y="108" fill="#DDF3F8" rx="1"/><rect width="5" height="5" x="43" y="108" fill="#DDF3F8" rx="1"/><rect width="5" height="5" x="56" y="108" fill="#DDF3F8" fill-opacity=".2" rx="1"/><rect width="5" height="5" x="69" y="108" fill="#DDF3F8" fill-opacity=".2" rx="1"/><rect width="5" height="5" x="82" y="108" fill="#DDF3F8" fill-opacity=".6" rx="1"/><rect width="5" height="5" x="95" y="108" fill="#DDF3F8" fill-opacity=".2" rx="1"/><rect width="5" height="5" x="108" y="108" fill="#DDF3F8" rx="1"/><rect width="5" height="5" x="121" y="108" fill="#DDF3F8" rx="1"/><rect width="5" height="5" x="134" y="108" fill="#DDF3F8" fill-opacity=".6" rx="1"/><rect width="5" height="5" x="147" y="108" fill="#DDF3F8" fill-opacity=".2" rx="1"/><rect width="5" height="5" x="160" y="108" fill="#DDF3F8" rx="1"/><rect width="5" height="5" x="173" y="108" fill="#DDF3F8" fill-opacity=".2" rx="1"/><rect width="5" height="5" x="186" y="108" fill="#DDF3F8" fill-opacity=".2" rx="1"/><rect width="5" height="5" x="4" y="121" fill="#DDF3F8" fill-opacity=".8" rx="1"/><rect width="5" height="5" x="17" y="121" fill="#DDF3F8" fill-opacity=".6" rx="1"/><rect width="5" height="5" x="30" y="121" fill="#DDF3F8" fill-opacity=".2" rx="1"/><rect width="5" height="5" x="43" y="121" fill="#DDF3F8" fill-opacity=".4" rx="1"/><rect width="5" height="5" x="56" y="121" fill="#DDF3F8" fill-opacity=".6" rx="1"/><rect width="5" height="5" x="69" y="121" fill="#DDF3F8" rx="1"/><rect width="5" height="5" x="82" y="121" fill="#DDF3F8" fill-opacity=".6" rx="1"/><rect width="5" height="5" x="95" y="121" fill="#DDF3F8" fill-opacity=".4" rx="1"/><rect width="5" height="5" x="108" y="121" fill="#DDF3F8" fill-opacity=".8" rx="1"/><rect width="5" height="5" x="121" y="121" fill="#DDF3F8" rx="1"/><rect width="5" height="5" x="134" y="121" fill="#DDF3F8" fill-opacity=".8" rx="1"/><rect width="5" height="5" x="147" y="121" fill="#DDF3F8" rx="1"/><rect width="5" height="5" x="160" y="121" fill="#DDF3F8" fill-opacity=".2" rx="1"/><rect width="5" height="5" x="173" y="121" fill="#DDF3F8" fill-opacity=".2" rx="1"/><rect width="5" height="5" x="186" y="121" fill="#DDF3F8" fill-opacity=".8" rx="1"/><rect width="5" height="5" x="4" y="134" fill="#DDF3F8" fill-opacity=".8" rx="1"/><rect width="5" height="5" x="17" y="134" fill="#DDF3F8" fill-opacity=".8" rx="1"/><rect width="5" height="5" x="30" y="134" fill="#DDF3F8" fill-opacity=".4" rx="1"/><rect width="5" height="5" x="43" y="134" fill="#DDF3F8" rx="1"/><rect width="5" height="5" x="56" y="134" fill="#DDF3F8" fill-opacity=".2" rx="1"/><rect width="5" height="5" x="69" y="134" fill="#DDF3F8" rx="1"/><rect width="5" height="5" x="82" y="134" fill="#DDF3F8" fill-opacity=".2" rx="1"/><rect width="5" height="5" x="95" y="134" fill="#DDF3F8" fill-opacity=".6" rx="1"/><rect width="5" height="5" x="108" y="134" fill="#DDF3F8" rx="1"/><rect width="5" height="5" x="121" y="134" fill="#DDF3F8" fill-opacity=".4" rx="1"/><rect width="5" height="5" x="134" y="134" fill="#DDF3F8" rx="1"/><rect width="5" height="5" x="147" y="134" fill="#DDF3F8" fill-opacity=".2" rx="1"/><rect width="5" height="5" x="160" y="134" fill="#DDF3F8" fill-opacity=".4" rx="1"/><rect width="5" height="5" x="173" y="134" fill="#DDF3F8" fill-opacity=".4" rx="1"/><rect width="5" height="5" x="186" y="134" fill="#DDF3F8" rx="1"/><rect width="5" height="5" x="4" y="147" fill="#DDF3F8" fill-opacity=".8" rx="1"/><rect width="5" height="5" x="17" y="147" fill="#DDF3F8" fill-opacity=".4" rx="1"/><rect width="5" height="5" x="30" y="147" fill="#DDF3F8" fill-opacity=".4" rx="1"/><rect width="5" height="5" x="43" y="147" fill="#DDF3F8" fill-opacity=".6" rx="1"/><rect width="5" height="5" x="56" y="147" fill="#DDF3F8" fill-opacity=".6" rx="1"/><rect width="5" height="5" x="69" y="147" fill="#DDF3F8" fill-opacity=".2" rx="1"/><rect width="5" height="5" x="82" y="147" fill="#DDF3F8" rx="1"/><rect width="5" height="5" x="95" y="147" fill="#DDF3F8" fill-opacity=".8" rx="1"/><rect width="5" height="5" x="108" y="147" fill="#DDF3F8" fill-opacity=".4" rx="1"/><rect width="5" height="5" x="121" y="147" fill="#DDF3F8" fill-opacity=".6" rx="1"/><rect width="5" height="5" x="134" y="147" fill="#DDF3F8" fill-opacity=".2" rx="1"/><rect width="5" height="5" x="147" y="147" fill="#DDF3F8" fill-opacity=".2" rx="1"/><rect width="5" height="5" x="160" y="147" fill="#DDF3F8" fill-opacity=".4" rx="1"/><rect width="5" height="5" x="173" y="147" fill="#DDF3F8" fill-opacity=".8" rx="1"/><rect width="5" height="5" x="186" y="147" fill="#DDF3F8" fill-opacity=".8" rx="1"/><rect width="5" height="5" x="4" y="160" fill="#DDF3F8" fill-opacity=".8" rx="1"/><rect width="5" height="5" x="17" y="160" fill="#DDF3F8" fill-opacity=".2" rx="1"/><rect width="5" height="5" x="30" y="160" fill="#DDF3F8" rx="1"/><rect width="5" height="5" x="43" y="160" fill="#DDF3F8" fill-opacity=".4" rx="1"/><rect width="5" height="5" x="56" y="160" fill="#DDF3F8" fill-opacity=".8" rx="1"/><rect width="5" height="5" x="69" y="160" fill="#DDF3F8" fill-opacity=".4" rx="1"/><rect width="5" height="5" x="82" y="160" fill="#DDF3F8" rx="1"/><rect width="5" height="5" x="95" y="160" fill="#DDF3F8" fill-opacity=".6" rx="1"/><rect width="5" height="5" x="108" y="160" fill="#DDF3F8" fill-opacity=".8" rx="1"/><rect width="5" height="5" x="121" y="160" fill="#DDF3F8" rx="1"/><rect width="5" height="5" x="134" y="160" fill="#DDF3F8" fill-opacity=".6" rx="1"/><rect width="5" height="5" x="147" y="160" fill="#DDF3F8" fill-opacity=".2" rx="1"/><rect width="5" height="5" x="160" y="160" fill="#DDF3F8" rx="1"/><rect width="5" height="5" x="173" y="160" fill="#DDF3F8" fill-opacity=".2" rx="1"/><rect width="5" height="5" x="186" y="160" fill="#DDF3F8" fill-opacity=".8" rx="1"/><rect width="5" height="5" x="4" y="173" fill="#DDF3F8" fill-opacity=".2" rx="1"/><rect width="5" height="5" x="17" y="173" fill="#DDF3F8" fill-opacity=".4" rx="1"/><rect width="5" height="5" x="30" y="173" fill="#DDF3F8" rx="1"/><rect width="5" height="5" x="43" y="173" fill="#DDF3F8" fill-opacity=".4" rx="1"/><rect width="5" height="5" x="56" y="173" fill="#DDF3F8" fill-opacity=".8" rx="1"/><rect width="5" height="5" x="69" y="173" fill="#DDF3F8" rx="1"/><rect width="5" height="5" x="82" y="173" fill="#DDF3F8" fill-opacity=".8" rx="1"/><rect width="5" height="5" x="95" y="173" fill="#DDF3F8" rx="1"/><rect width="5" height="5" x="108" y="173" fill="#DDF3F8" fill-opacity=".8" rx="1"/><rect width="5" height="5" x="121" y="173" fill="#DDF3F8" fill-opacity=".8" rx="1"/><rect width="5" height="5" x="134" y="173" fill="#DDF3F8" rx="1"/><rect width="5" height="5" x="147" y="173" fill="#DDF3F8" fill-opacity=".4" rx="1"/><rect width="5" height="5" x="160" y="173" fill="#DDF3F8" fill-opacity=".8" rx="1"/><rect width="5" height="5" x="173" y="173" fill="#DDF3F8" fill-opacity=".2" rx="1"/><rect width="5" height="5" x="186" y="173" fill="#DDF3F8" fill-opacity=".2" rx="1"/><rect width="5" height="5" x="4" y="186" fill="#DDF3F8" fill-opacity=".8" rx="1"/><rect width="5" height="5" x="17" y="186" fill="#DDF3F8" rx="1"/><rect width="5" height="5" x="30" y="186" fill="#DDF3F8" fill-opacity=".2" rx="1"/><rect width="5" height="5" x="43" y="186" fill="#DDF3F8" fill-opacity=".8" rx="1"/><rect width="5" height="5" x="56" y="186" fill="#DDF3F8" rx="1"/><rect width="5" height="5" x="69" y="186" fill="#DDF3F8" fill-opacity=".8" rx="1"/><rect width="5" height="5" x="82" y="186" fill="#DDF3F8" fill-opacity=".2" rx="1"/><rect width="5" height="5" x="95" y="186" fill="#DDF3F8" fill-opacity=".8" rx="1"/><rect width="5" height="5" x="108" y="186" fill="#DDF3F8" fill-opacity=".4" rx="1"/><rect width="5" height="5" x="121" y="186" fill="#DDF3F8" fill-opacity=".2" rx="1"/><rect width="5" height="5" x="134" y="186" fill="#DDF3F8" fill-opacity=".6" rx="1"/><rect width="5" height="5" x="147" y="186" fill="#DDF3F8" fill-opacity=".4" rx="1"/><rect width="5" height="5" x="160" y="186" fill="#DDF3F8" fill-opacity=".8" rx="1"/><rect width="5" height="5" x="173" y="186" fill="#DDF3F8" fill-opacity=".8" rx="1"/><rect width="5" height="5" x="186" y="186" fill="#DDF3F8" fill-opacity=".2" rx="1"/></svg>