<svg width="128" height="128" viewBox="0 0 128 128" fill="none" xmlns="http://www.w3.org/2000/svg">
<rect x="7" y="5" width="114" height="116" rx="22" fill="white"/>
<path fill-rule="evenodd" clip-rule="evenodd" d="M0 24C0 10.7452 10.7452 0 24 0H104C117.255 0 128 10.7452 128 24V104C128 117.255 117.255 128 104 128H24C10.7452 128 0 117.255 0 104V24ZM80.9908 24.9999H67.4648C65.9085 24.9999 64.4691 25.8233 63.6931 27.1571L18.9966 103.913H32.5529C34.092 103.913 35.5139 103.103 36.2813 101.782L80.9908 24.9999ZM103.708 103.913H60.5587H47.0024L91.6989 27.1571C92.4749 25.8233 93.9142 24.9999 95.4706 24.9999H108.997L70.6902 90.7852L103.716 91.0297C104.813 91.0383 105.702 91.9218 105.702 93.0111V101.94C105.702 103.03 104.809 103.913 103.708 103.913Z" fill="#F6C31B"/>
</svg>
